<?xml version="1.0" standalone="no"?>
<!DOCTYPE svg PUBLIC "-//W3C//DTD SVG 20010904//EN"
 "http://www.w3.org/TR/2001/REC-SVG-20010904/DTD/svg10.dtd">
<svg version="1.0" xmlns="http://www.w3.org/2000/svg"
 width="1920.000000pt" height="1555.000000pt" viewBox="0 0 1920.000000 1555.000000"
 preserveAspectRatio="xMidYMid meet">
<metadata>
Created by potrace 1.16, written by Peter Selinger 2001-2019
</metadata>
<g transform="translate(0.000000,1555.000000) scale(0.100000,-0.100000)"
fill="white" stroke="none">
<path d="M5983 12796 c-99 -31 -169 -92 -221 -189 l-27 -52 0 -3970 0 -3970
28 -56 c32 -67 109 -142 175 -172 l47 -22 3050 0 3050 0 56 28 c102 49 182
158 198 265 3 25 9 46 12 46 3 1 86 -89 183 -199 98 -110 194 -215 214 -233
166 -151 381 -199 539 -120 55 27 362 298 415 365 52 66 72 130 73 233 0 108
-31 208 -94 301 -69 101 -850 968 -879 976 -20 5 -38 -1 -83 -24 -5 -3 -227
238 -242 263 -3 6 9 46 28 90 120 280 153 620 89 928 -35 169 -126 391 -213
521 l-40 60 -1 2332 c0 2328 0 2332 -21 2387 -28 77 -96 148 -177 188 l-67 33
-3025 2 c-2482 1 -3033 -1 -3067 -11z m6104 -140 c63 -30 107 -86 122 -157 12
-54 16 -4469 5 -4469 -4 0 -36 28 -73 63 -219 206 -453 327 -771 399 -92 20
-131 23 -305 23 -167 -1 -217 -5 -301 -23 -148 -32 -243 -66 -389 -137 -434
-214 -732 -601 -836 -1085 -20 -90 -23 -135 -23 -310 0 -174 3 -221 22 -306
180 -833 954 -1364 1787 -1228 110 18 216 47 314 86 40 16 74 27 75 26 1 -2
42 -48 91 -103 49 -55 97 -110 108 -122 14 -16 16 -26 8 -40 -10 -19 1 -65 24
-104 6 -9 70 -83 144 -165 l134 -148 -5 -101 c-6 -111 -23 -158 -75 -207 -66
-63 192 -58 -3110 -58 -2888 0 -3010 1 -3048 19 -50 22 -101 79 -115 128 -8
27 -10 1160 -8 3970 l3 3931 31 44 c19 27 50 53 84 71 l54 27 3000 0 3001 0
52 -24z m-812 -4281 c605 -91 1075 -542 1197 -1149 27 -133 29 -369 4 -506
-20 -115 -81 -301 -131 -401 -127 -254 -368 -499 -614 -623 -561 -285 -1219
-187 -1661 247 -295 290 -443 661 -427 1072 6 158 23 255 72 402 140 420 477
757 900 899 208 69 448 91 660 59z m1221 -2330 c49 -55 97 -110 106 -121 17
-20 12 -25 -273 -280 -159 -142 -293 -259 -297 -259 -12 0 -194 204 -190 214
1 5 44 36 93 69 168 112 315 258 422 418 25 36 46 64 47 62 2 -1 43 -48 92
-103z m302 -197 c2 -10 -129 -133 -350 -331 -268 -240 -355 -313 -365 -305 -7
6 -13 14 -13 18 0 5 143 136 317 292 175 155 333 297 353 315 37 34 53 37 58
11z m116 -127 c16 -17 2 -32 -335 -332 -193 -173 -357 -315 -364 -317 -8 -2
-18 5 -23 15 -9 16 40 63 345 336 196 174 357 317 358 317 1 0 9 -8 19 -19z
m371 -412 c143 -159 272 -308 287 -331 45 -67 70 -146 71 -223 1 -115 -14
-137 -214 -316 -96 -86 -184 -161 -196 -168 -93 -49 -250 -19 -360 68 -37 29
-565 615 -565 626 0 11 695 633 707 634 6 1 128 -130 270 -290z"/>
<path d="M7850 11719 c-51 -6 -79 -14 -87 -26 -10 -13 -13 -172 -13 -713 0
-662 1 -698 18 -713 17 -16 81 -17 718 -17 573 0 704 2 719 14 52 38 44 354
-15 566 -27 97 -103 256 -170 354 -252 375 -717 587 -1170 535z m433 -92 c423
-111 753 -442 856 -860 29 -118 43 -258 36 -359 l-7 -88 -679 0 -679 0 0 664
0 665 28 4 c15 3 99 4 187 2 133 -2 177 -7 258 -28z"/>
<path d="M7525 11498 c-275 -65 -487 -180 -662 -359 -231 -235 -353 -536 -353
-869 0 -540 342 -1010 861 -1184 228 -76 531 -77 763 -1 406 133 726 470 825
870 34 138 33 131 5 143 -18 9 -213 12 -704 12 l-680 0 0 670 c0 440 3 670 10
670 15 0 12 15 -7 38 -16 17 -24 18 -58 10z m-15 -745 c0 -606 1 -668 17 -685
15 -17 50 -18 701 -18 l684 0 -7 -37 c-13 -74 -67 -219 -110 -299 -165 -303
-438 -512 -775 -594 -109 -27 -309 -37 -419 -21 -268 39 -490 149 -675 334
-108 108 -167 188 -229 312 -323 647 2 1418 696 1650 40 13 82 24 95 24 l22 1
0 -667z"/>
<path d="M9521 11316 c-16 -19 -16 -1983 0 -2002 10 -12 172 -14 1019 -14 963
0 1008 1 1023 18 16 17 17 101 17 999 0 937 -1 981 -18 996 -17 16 -102 17
-1024 17 -834 0 -1007 -2 -1017 -14z m1997 -998 l2 -948 -975 0 -975 0 0 950
0 950 973 -2 972 -3 3 -947z"/>
<path d="M9717 11032 c-21 -23 -24 -161 -5 -180 17 -17 1639 -17 1656 0 7 7
12 42 12 88 0 62 -4 80 -18 93 -17 16 -89 17 -824 17 -767 0 -806 -1 -821 -18z
m1603 -92 l0 -40 -775 0 -775 0 0 40 0 40 775 0 775 0 0 -40z"/>
<path d="M9717 10622 c-25 -27 -24 -153 1 -175 17 -16 89 -17 828 -17 617 0
813 3 822 12 7 7 12 43 12 93 0 50 -5 86 -12 93 -9 9 -206 12 -823 12 -774 0
-813 -1 -828 -18z m1601 -89 l3 -43 -774 0 -775 0 -4 41 c-2 22 -2 42 1 45 2
2 351 3 775 2 l771 -3 3 -42z"/>
<path d="M9717 10202 c-21 -23 -24 -161 -5 -180 17 -17 1639 -17 1656 0 7 7
12 43 12 93 0 50 -5 86 -12 93 -9 9 -206 12 -823 12 -774 0 -813 -1 -828 -18z
m1601 -89 l3 -43 -775 0 -776 0 0 45 0 45 773 -2 772 -3 3 -42z"/>
<path d="M9717 9782 c-12 -13 -17 -37 -17 -86 0 -119 -100 -106 838 -106 623
0 821 3 830 12 7 7 12 42 12 88 0 62 -4 80 -18 93 -17 16 -89 17 -824 17 -767
0 -806 -1 -821 -18z m1601 -89 l3 -43 -775 0 c-558 0 -775 3 -778 11 -2 6 -2
26 0 45 l4 33 772 -2 771 -2 3 -42z"/>
<path d="M6470 8030 l0 -60 1260 0 1260 0 0 60 0 60 -1260 0 -1260 0 0 -60z"/>
<path d="M6470 7360 l0 -60 1260 0 1260 0 0 60 0 60 -1260 0 -1260 0 0 -60z"/>
<path d="M6470 6728 l0 -63 1257 2 1258 3 0 57 0 58 -1257 3 -1258 2 0 -62z"/>
<path d="M6470 6020 l0 -60 1260 0 1260 0 0 60 0 60 -1260 0 -1260 0 0 -60z"/>
<path d="M6470 5320 l0 -60 1260 0 1261 0 -3 58 -3 57 -1257 3 -1258 2 0 -60z"/>
<path d="M10937 8120 c-256 -29 -507 -151 -692 -335 -458 -459 -453 -1208 11
-1655 108 -104 184 -157 318 -221 150 -72 269 -99 451 -106 170 -6 267 7 417
57 342 114 613 385 728 728 117 351 62 746 -148 1042 -101 144 -278 297 -431
375 -72 36 -212 83 -298 99 -105 19 -261 26 -356 16z m283 -135 c436 -66 783
-398 865 -827 17 -93 20 -287 4 -374 -69 -389 -360 -711 -744 -820 -128 -37
-349 -44 -485 -16 -389 80 -690 367 -796 758 -23 85 -27 120 -28 244 0 85 5
170 12 205 49 224 148 402 309 556 171 163 343 244 603 283 59 8 172 5 260 -9z"/>
</g>
</svg>
