<?xml version="1.0" encoding="UTF-8"?>
<svg version="1.1" xmlns="http://www.w3.org/2000/svg" width="48" height="48">
<path d="M0 0 C0.84175781 -0.00257813 1.68351563 -0.00515625 2.55078125 -0.0078125 C3.87142578 0.00378906 3.87142578 0.00378906 5.21875 0.015625 C6.09917969 0.00789062 6.97960938 0.00015625 7.88671875 -0.0078125 C8.72847656 -0.00523437 9.57023437 -0.00265625 10.4375 0 C11.59668945 0.00338379 11.59668945 0.00338379 12.77929688 0.00683594 C14.71875 0.265625 14.71875 0.265625 16.71875 2.265625 C16.9140625 5.3046875 16.9140625 5.3046875 16.84375 8.890625 C16.82570313 10.07914063 16.80765625 11.26765625 16.7890625 12.4921875 C16.76585938 13.40742188 16.74265625 14.32265625 16.71875 15.265625 C15.72875 15.265625 14.73875 15.265625 13.71875 15.265625 C13.38875 11.635625 13.05875 8.005625 12.71875 4.265625 C7.76875 4.265625 2.81875 4.265625 -2.28125 4.265625 C-2.28125 14.165625 -2.28125 24.065625 -2.28125 34.265625 C2.66875 34.265625 7.61875 34.265625 12.71875 34.265625 C13.04875 30.635625 13.37875 27.005625 13.71875 23.265625 C14.70875 23.265625 15.69875 23.265625 16.71875 23.265625 C16.77261629 25.39035076 16.81148071 27.51546152 16.84375 29.640625 C16.86695312 30.82398437 16.89015625 32.00734375 16.9140625 33.2265625 C16.71875 36.265625 16.71875 36.265625 14.71875 38.265625 C12.77929687 38.52441406 12.77929687 38.52441406 10.4375 38.53125 C9.59574219 38.53382812 8.75398438 38.53640625 7.88671875 38.5390625 C7.00628906 38.53132813 6.12585937 38.52359375 5.21875 38.515625 C4.33832031 38.52335937 3.45789062 38.53109375 2.55078125 38.5390625 C1.70902344 38.53648438 0.86726562 38.53390625 0 38.53125 C-0.77279297 38.52899414 -1.54558594 38.52673828 -2.34179688 38.52441406 C-4.28125 38.265625 -4.28125 38.265625 -6.28125 36.265625 C-6.4808197 33.70812047 -6.56111826 31.26124359 -6.546875 28.703125 C-6.54878845 27.95603271 -6.5507019 27.20894043 -6.55267334 26.43920898 C-6.55403498 24.85888329 -6.55034 23.27854642 -6.54199219 21.69824219 C-6.531292 19.27513578 -6.54188779 16.85277077 -6.5546875 14.4296875 C-6.5533659 12.89583169 -6.5508035 11.36197635 -6.546875 9.828125 C-6.55092346 9.10101318 -6.55497192 8.37390137 -6.55914307 7.62475586 C-6.50689207 2.03773906 -5.74708757 0.01677632 0 0 Z " fill="#ffffff" transform="translate(13.28125,4.734375)"/>
<path d="M0 0 C4.62983765 0.84729055 7.29394589 3.22069732 10 7 C10.30572272 10.05722717 9.57315346 11.28610175 7.6796875 13.64453125 C6.17859919 15.25499535 4.78457381 16.70818164 3 18 C2.01 18 1.02 18 0 18 C0.875 13.125 0.875 13.125 2 12 C-4.93 11.67 -11.86 11.34 -19 11 C-19 9.68 -19 8.36 -19 7 C-8.605 6.505 -8.605 6.505 2 6 C1.34 5.34 0.68 4.68 0 4 C0 2.68 0 1.36 0 0 Z " fill="#ffffff" transform="translate(33,15)"/>
</svg>
