<?xml version="1.0" encoding="UTF-8"?>
<svg version="1.1" xmlns="http://www.w3.org/2000/svg" width="512" height="512">
<path d="M0 0 C2.47191987 1.92384714 4.82333306 3.92203777 7.15234375 6.015625 C7.76335937 6.53382813 8.374375 7.05203125 9.00390625 7.5859375 C21.25464026 18.71788302 29.26660583 36.32086696 30.32731628 52.72094727 C30.38145478 55.57390173 30.3778198 58.42014236 30.34765625 61.2734375 C30.34482635 62.30250214 30.34199646 63.33156677 30.33908081 64.39181519 C30.32798854 67.64154256 30.3029049 70.89098254 30.27734375 74.140625 C30.26729978 76.35937099 30.25817642 78.57812134 30.25 80.796875 C30.22808524 86.20322115 30.19471874 91.60940253 30.15234375 97.015625 C31.09141256 97.01193783 32.03048138 97.00825066 32.99800682 97.00445175 C55.8673282 96.91557981 78.73662712 96.849887 101.60608482 96.80837631 C112.66567504 96.78776752 123.72515106 96.75967902 134.78466797 96.71386719 C144.42624446 96.67394799 154.06773822 96.64817996 163.70939505 96.63927102 C168.8126987 96.6340649 173.91576571 96.62186359 179.01899338 96.59270477 C183.82721708 96.56545542 188.63510775 96.55719922 193.44340134 96.56319427 C195.20335706 96.56209829 196.96332449 96.55420131 198.7232132 96.5388031 C210.94620426 96.43714779 221.05798376 97.21356161 230.39453125 105.9453125 C237.42659938 114.22752608 238.99477145 123.47324405 238.15234375 134.015625 C236.48124127 141.22351279 232.79292247 147.22645439 227.15234375 152.015625 C220.36679916 156.16120087 214.5377482 158.16480514 206.6010437 158.16279602 C205.82487202 158.16647271 205.04870034 158.1701494 204.2490083 158.1739375 C201.63979446 158.18497875 199.03062043 158.18881895 196.42138672 158.19262695 C194.55379611 158.19889135 192.68620676 158.20553813 190.81861877 158.21253967 C184.67726511 158.23358804 178.53591117 158.24394385 172.39453125 158.25390625 C170.28015251 158.25795373 168.16577389 158.26207065 166.05139542 158.26625633 C156.11644286 158.28531093 146.18149774 158.29954052 136.24653041 158.3078683 C124.78138053 158.31763744 113.31642388 158.34394746 101.85134208 158.38436919 C92.98836761 158.41454339 84.12544847 158.42933849 75.26242363 158.43264931 C69.96974183 158.43499862 64.6772664 158.44394348 59.38463974 158.46911049 C54.40236217 158.49241843 49.42042644 158.49661342 44.43810844 158.48634911 C42.61323471 158.48585427 40.78834399 158.49215919 38.96352196 158.50590515 C28.10519818 158.58309625 18.44753298 158.58541283 10.0546875 150.75390625 C9.4035498 150.14885254 8.75241211 149.54379883 8.08154297 148.92041016 C4.87567219 145.75510975 1.76778458 142.51592471 -1.28515625 139.203125 C-2.26609253 138.14774536 -2.26609253 138.14774536 -3.2668457 137.07104492 C-7.42725642 132.58501444 -11.54244028 128.06011644 -15.6171875 123.49609375 C-18.29324567 120.52009211 -21.00504082 117.5786458 -23.72265625 114.640625 C-27.18721263 110.89472796 -30.65137714 107.14861791 -34.09936523 103.38745117 C-35.45666056 101.90805959 -36.81815092 100.43252039 -38.1796875 98.95703125 C-40.00557938 96.9440055 -41.78931331 94.92540085 -43.546875 92.85546875 C-44.40925781 91.85644531 -45.27164063 90.85742188 -46.16015625 89.828125 C-47.29904297 88.47654297 -47.29904297 88.47654297 -48.4609375 87.09765625 C-51.27923892 84.63913799 -53.16785843 84.28643263 -56.84765625 84.015625 C-57.2918656 87.9269749 -57.17472152 89.56393331 -54.828125 92.8046875 C-53.90644531 93.74054688 -52.98476563 94.67640625 -52.03515625 95.640625 C-51.01783872 96.69493589 -50.00092264 97.74963427 -48.984375 98.8046875 C-48.46149902 99.33739258 -47.93862305 99.87009766 -47.39990234 100.41894531 C-44.99017624 102.89765068 -42.67206585 105.45722008 -40.34765625 108.015625 C-39.43147682 109.01607142 -38.51480856 110.01607039 -37.59765625 111.015625 C-32.09765625 117.015625 -26.59765625 123.015625 -21.09765625 129.015625 C-20.64342285 129.5111084 -20.18918945 130.0065918 -19.72119141 130.51708984 C-18.80923046 131.51204474 -17.89744513 132.50716063 -16.98583984 133.50244141 C-14.62362749 136.08101381 -12.25796197 138.65629034 -9.88671875 141.2265625 C-9.39880859 141.75636719 -8.91089844 142.28617188 -8.40820312 142.83203125 C-7.05821832 144.29772904 -5.7068888 145.76218794 -4.35546875 147.2265625 C-2.60988901 149.1679082 -0.96499158 151.10148762 0.6640625 153.1328125 C8.93509762 162.71526763 17.98362971 164.80313154 30.15234375 167.015625 C30.15234375 194.735625 30.15234375 222.455625 30.15234375 251.015625 C-18.02765625 251.015625 -66.20765625 251.015625 -115.84765625 251.015625 C-116.00886839 199.96063687 -116.00886839 199.96063687 -116.04296875 178.52148438 C-116.06667809 163.734237 -116.09450955 148.94708097 -116.14941406 134.15991211 C-116.18938639 123.38918774 -116.21511384 112.61853768 -116.22401023 101.84774119 C-116.22920738 96.14904582 -116.24135118 90.45056296 -116.27057648 84.75193596 C-116.29790997 79.37819139 -116.30606524 74.00474506 -116.30008698 68.63093758 C-116.30117924 66.66828918 -116.30902544 64.70562986 -116.32447815 62.74304199 C-116.4957644 39.84807183 -111.13758403 22.05450078 -94.984375 5.0546875 C-69.77229673 -18.80770778 -27.83233183 -19.39482108 0 0 Z " fill="#ffffff" transform="translate(115.84765625,212.984375)"/>
<path d="M0 0 C14.38419695 14.06119851 23.46485688 33.20092076 23.85107422 53.44799805 C23.92731166 72.76073477 18.9009515 89.4443399 6.609375 104.55078125 C6.01640625 105.3190625 5.4234375 106.08734375 4.8125 106.87890625 C-8.12696932 122.69381319 -26.58082309 130.08483081 -46.390625 132.55078125 C-66.03351078 134.34556269 -85.44659068 128.13120412 -100.71875 115.8515625 C-101.60046875 115.09230469 -102.4821875 114.33304688 -103.390625 113.55078125 C-104.18984375 112.86371094 -104.9890625 112.17664063 -105.8125 111.46875 C-119.47420793 98.77278349 -127.95473425 80.70938863 -128.7265625 62.0703125 C-129.08181085 39.81516186 -123.67781574 20.27017316 -108.390625 3.55078125 C-107.85050781 2.93074219 -107.31039062 2.31070313 -106.75390625 1.671875 C-96.33595253 -9.60373109 -80.57995747 -17.29900472 -65.390625 -19.44921875 C-64.15505859 -19.63097656 -64.15505859 -19.63097656 -62.89453125 -19.81640625 C-39.93334828 -22.54908695 -17.19939542 -15.3167589 0 0 Z " fill="#ffffff" transform="translate(191.390625,68.44921875)"/>
<path d="M0 0 C1.66531431 -0.00298657 1.66531431 -0.00298657 3.36427134 -0.00603348 C4.58896343 -0.00312064 5.81365551 -0.0002078 7.07545948 0.00279331 C9.02103354 0.00151167 9.02103354 0.00151167 11.00591213 0.00020415 C14.61344407 -0.00203766 18.22094646 0.0019762 21.82847464 0.00698221 C25.7159838 0.01129101 29.60349121 0.00983998 33.49100208 0.00907993 C40.22882134 0.00855497 46.96663092 0.01169888 53.70444775 0.01731777 C63.4462618 0.02543652 73.18807116 0.02804838 82.92988823 0.02930576 C98.73442151 0.03149569 114.53894963 0.03815418 130.34348011 0.04760838 C145.69829756 0.05678402 161.0531136 0.06386411 176.40793324 0.06811619 C177.82706738 0.06851027 177.82706738 0.06851027 179.27487089 0.06891232 C184.02100957 0.07021733 188.76714826 0.07148105 193.51328695 0.07272422 C232.9022451 0.08309499 272.29119683 0.10098646 311.68015003 0.12304783 C311.68015003 12.33304783 311.68015003 24.54304783 311.68015003 37.12304783 C271.39836432 37.19084606 231.1165936 37.24456538 190.83476233 37.27624382 C186.08075084 37.279996 181.32673947 37.28387897 176.57272816 37.28784275 C175.15305163 37.28902315 175.15305163 37.28902315 173.70469476 37.29022739 C158.37336277 37.30328667 143.04206447 37.32694339 127.71075247 37.35450622 C111.98321301 37.38254588 96.25569122 37.39922104 80.52812779 37.40531331 C70.8208417 37.40943274 61.11365085 37.42245069 51.40639408 37.44679723 C44.75269693 37.46263666 38.09904912 37.46745226 31.44533448 37.46355196 C27.60462044 37.46162762 23.76407301 37.46460876 19.92338848 37.48066425 C15.76089054 37.49793814 11.59874857 37.49202128 7.43622303 37.48381138 C6.22026947 37.4925499 5.00431591 37.50128843 3.75151527 37.51029176 C-6.53218276 37.45525952 -6.53218276 37.45525952 -11.31984997 34.12304783 C-15.92855185 29.14066742 -16.49059763 25.48755699 -16.56984997 18.81054783 C-16.59563122 17.51504002 -16.62141247 16.2195322 -16.64797497 14.88476658 C-16.18917112 9.6249082 -14.68665457 6.38734208 -10.81984997 2.81054783 C-7.10965631 0.30616711 -4.36956178 -0.00172505 0 0 Z " fill="#ffffff" transform="translate(169.31984996795654,414.8769521713257)"/>
<path d="M0 0 C3.25298916 2.86572855 5.28900829 4.85194423 5.89320374 9.27662659 C6.18231379 17.29714846 3.74678121 24.16804831 1.12109375 31.65234375 C0.64551016 33.04356271 0.1712571 34.43523713 -0.30175781 35.82733154 C-1.56696021 39.53838389 -2.85082205 43.24272045 -4.13853836 46.94601059 C-5.4841908 50.8265085 -6.81213974 54.71305937 -8.14233398 58.59887695 C-11.19737322 67.51125568 -14.28120086 76.41351245 -17.375 85.3125 C-17.95169434 86.97212769 -17.95169434 86.97212769 -18.54003906 88.6652832 C-21.22538677 96.38848918 -23.91770399 104.10920521 -26.63623047 111.82080078 C-30.27288302 122.15828583 -33.8060692 132.52781618 -37.28672218 142.91865349 C-38.03787806 145.16052745 -38.79010478 147.40203937 -39.54264832 149.64344788 C-40.04595722 151.14290433 -40.54923782 152.64237029 -41.05249023 154.1418457 C-41.30220172 154.88586671 -41.5519132 155.62988771 -41.8091917 156.39645481 C-43.2979395 160.83549187 -44.77823839 165.27724187 -46.25259781 169.72107697 C-47.17601721 172.49841995 -48.1067182 175.27328531 -49.03918076 178.04760361 C-49.47407836 179.34690246 -49.9058218 180.64726198 -50.3341713 181.94873428 C-55.236903 196.8356696 -55.236903 196.8356696 -60.43192291 200.93598366 C-64.51067779 202.84367162 -68.033864 202.72818535 -72.48449707 202.69345093 C-73.40404065 202.6981309 -74.32358422 202.70281087 -75.27099276 202.70763266 C-78.35333443 202.71960209 -81.43523312 202.71011769 -84.51757812 202.70068359 C-86.72692627 202.70474842 -88.93627238 202.7100898 -91.14561462 202.71661377 C-97.14757955 202.73030366 -103.14938998 202.72498174 -109.15135765 202.71547651 C-115.42842403 202.70788863 -121.70547706 202.7149231 -127.98254395 202.71963501 C-139.19986325 202.72544497 -150.41711878 202.71611378 -161.63442308 202.700857 C-171.8036802 202.68745385 -181.97283458 202.68978196 -192.14208984 202.70361328 C-203.9532369 202.71967025 -215.7643342 202.72564259 -227.57549429 202.71677649 C-233.82705242 202.71209601 -240.07853978 202.71148546 -246.33009338 202.72138596 C-252.20700193 202.73004277 -258.08371619 202.72405706 -263.96060371 202.70670319 C-266.11933125 202.70273149 -268.27807511 202.70388401 -270.43679619 202.71049118 C-273.37992027 202.71866963 -276.32241887 202.70842961 -279.26550293 202.69345093 C-280.12299149 202.70014309 -280.98048005 202.70683526 -281.86395311 202.71373022 C-286.53671048 202.66749387 -289.55858565 202.30824264 -293.375 199.3125 C-296.47204831 195.48876996 -297.71808577 191.51805656 -297.375 186.625 C-296.69615615 182.60735271 -295.3389779 180.18930208 -292.375 177.3125 C-287.20392317 173.86511545 -282.01153164 174.1618114 -275.95317078 174.15428162 C-275.10768687 174.14934364 -274.26220296 174.14440566 -273.39109832 174.13931805 C-270.55980643 174.12396758 -267.72853717 174.11558905 -264.8972168 174.10717773 C-262.86694642 174.09759729 -260.83667804 174.08758711 -258.80641174 174.07717896 C-253.29449964 174.05014191 -247.78257898 174.02912581 -242.27063727 174.00917697 C-236.51039048 173.98731005 -230.75017001 173.9599248 -224.98994446 173.93312073 C-214.08200745 173.88320342 -203.17405582 173.838261 -192.26609021 173.79509836 C-179.84781345 173.74571779 -167.4295631 173.69080269 -155.01131189 173.63541877 C-129.46589924 173.52161349 -103.92046125 173.41477126 -78.375 173.3125 C-78.11631449 172.54675093 -77.85762897 171.78100185 -77.59110451 170.99204826 C-75.11669271 163.66802832 -72.64125084 156.34435763 -70.16473639 149.02104843 C-68.89249697 145.25879275 -67.62061509 141.4964171 -66.34963989 137.73373413 C-60.56397507 120.60637824 -54.75418242 103.48983414 -48.75 86.4375 C-48.29553183 85.14671099 -48.29553183 85.14671099 -47.83188248 83.82984543 C-47.52679638 82.96342548 -47.22171028 82.09700554 -46.90737915 81.20433044 C-43.47048007 71.44375538 -40.13672409 61.65191157 -36.86957932 51.83336639 C-36.18930223 49.79056814 -35.50728498 47.74835976 -34.82461548 45.70635986 C-34.59937887 45.03254524 -34.37414227 44.35873062 -34.14208031 43.66449738 C-33.68696721 42.30308124 -33.23178862 40.94168699 -32.77654457 39.58031464 C-31.43882061 35.57588227 -30.11345446 31.56761879 -28.79694748 27.55616474 C-27.77869615 24.46495815 -26.74325377 21.37950139 -25.7109375 18.29296875 C-25.34693848 17.17003922 -24.98293945 16.04710968 -24.60791016 14.89015198 C-22.39107034 8.32123653 -20.32306211 2.92941473 -14.3359375 -1.0390625 C-9.27862743 -2.71140009 -4.72336167 -2.36168083 0 0 Z " fill="#ffffff" transform="translate(506.375,203.6875)"/>
</svg>
