<?xml version="1.0" encoding="UTF-8"?>
<svg version="1.1" xmlns="http://www.w3.org/2000/svg" width="512" height="512">
<path d="M0 0 C0.97792511 -0.0049649 1.95585022 -0.00992981 2.96340942 -0.01504517 C6.19485177 -0.02963457 9.42624498 -0.03646439 12.65771484 -0.04199219 C14.91108196 -0.04774746 17.16444906 -0.05350514 19.41781616 -0.05926514 C24.1437808 -0.06976678 28.86972847 -0.07561454 33.59570312 -0.07910156 C39.63117539 -0.08457637 45.66642094 -0.10858646 51.70182228 -0.13707352 C56.35859822 -0.15576368 61.01532032 -0.16090895 65.67213058 -0.16243744 C67.89592093 -0.16545144 70.1197106 -0.17343731 72.3434639 -0.18662262 C75.46612668 -0.20381222 78.5882457 -0.20177111 81.7109375 -0.1953125 C82.61730957 -0.20452728 83.52368164 -0.21374207 84.45751953 -0.22323608 C99.00851314 -0.12967525 112.50135001 5.64291501 122.98974609 15.67675781 C130.59533674 24.06004317 137.39220523 35.84157353 137.35717773 47.47070312 C137.3571022 48.31127258 137.35702667 49.15184204 137.35694885 50.0178833 C137.35178757 50.91593689 137.34662628 51.81399048 137.34130859 52.73925781 C137.33918617 54.12911896 137.33918617 54.12911896 137.33702087 55.54705811 C137.33143059 58.50178273 137.31887985 61.45643115 137.30615234 64.41113281 C137.30113609 66.41634005 137.2965734 68.42154848 137.29248047 70.42675781 C137.28146433 75.33824544 137.26420634 80.24967621 137.24365234 85.16113281 C137.8064987 85.15836743 138.36934505 85.15560205 138.94924736 85.15275288 C152.68057857 85.0863354 166.41188141 85.03696771 180.14333916 85.0056963 C186.78395123 84.99006343 193.42439611 84.96886853 200.06494141 84.93481445 C206.47753156 84.90213646 212.89001014 84.88426188 219.30267715 84.87650108 C221.74500407 84.87097276 224.18732512 84.86017736 226.62960434 84.84394264 C230.05951725 84.82205662 233.48897342 84.81917061 236.91894531 84.82055664 C237.92092453 84.80977081 238.92290375 84.79898499 239.95524597 84.78787231 C250.19576424 84.83243392 259.45736252 87.26882441 267.24365234 94.16113281 C274.58325633 102.64930078 276.54515707 110.1229329 276.53417969 121.06518555 C276.54089691 122.03537125 276.54761414 123.00555695 276.55453491 124.00514221 C276.57347593 127.20172302 276.57743807 130.39809317 276.57958984 133.59472656 C276.58602364 135.83325789 276.59275243 138.07178839 276.59976196 140.31031799 C276.61172731 145.00336655 276.61544386 149.69634157 276.61425781 154.3894043 C276.6140554 160.36389062 276.6412806 166.33789711 276.67580223 172.31227016 C276.69819692 176.93923548 276.70209142 181.56608796 276.70103836 186.19310188 C276.70337841 188.39322617 276.71211043 190.59335433 276.72770309 192.79342461 C276.90573493 220.52360211 276.90573493 220.52360211 270.78331566 231.86672688 C265.65114141 241.59106254 265.41181898 249.71729216 265.53417969 260.42895508 C265.53255459 262.23404357 265.52823063 264.03913132 265.5214386 265.84420776 C265.51247262 269.70641159 265.52202099 273.56794984 265.54633713 277.43008614 C265.58442394 283.54646388 265.57853239 289.6623369 265.56680298 295.77879333 C265.55001011 307.65833781 265.57798789 319.53757329 265.61022186 331.41706848 C265.64878285 346.5412795 265.66476362 361.66543936 265.64501727 376.78968853 C265.63851429 382.86052325 265.65265427 388.9308449 265.68346763 395.00160038 C265.69890292 398.78689743 265.69787225 402.57206801 265.69272423 406.35738754 C265.69377919 408.10200135 265.70163832 409.84662756 265.71710014 411.59117317 C265.8646514 428.98693544 261.73422228 442.92419518 249.64208984 455.98925781 C239.68363917 465.00700793 227.47787536 470.27707861 214.06812096 470.29256058 C212.81789379 470.29640172 211.56766661 470.30024287 210.27955377 470.30420041 C208.89481435 470.30342022 207.51007499 470.30254144 206.12533569 470.30157471 C204.65218072 470.30415913 203.17902644 470.3071725 201.70587313 470.31057811 C197.65663968 470.31864242 193.60742396 470.32043736 189.55818343 470.32117558 C185.19128046 470.32302714 180.82438667 470.33057503 176.45748901 470.33731079 C166.90776556 470.35089093 157.3580463 470.35691843 147.8083148 470.36132145 C141.84435277 470.3640846 135.88039236 470.3683221 129.91643143 470.37282562 C113.40119465 470.38501823 96.88595918 470.39531733 80.370718 470.39870071 C79.31375596 470.39892028 78.25679392 470.39913985 77.16780273 470.39936607 C76.1083219 470.39958434 75.04884107 470.39980262 73.95725477 470.40002751 C71.81037037 470.40047098 69.66348596 470.40091754 67.51660156 470.40136719 C66.4516744 470.40158862 65.38674723 470.40181005 64.28954954 470.40203819 C47.03812 470.40598528 29.78673272 470.42343664 12.53531949 470.44672671 C-5.180098 470.47044996 -22.8954943 470.48290302 -40.61092794 470.48406863 C-50.55597636 470.48498488 -60.50096972 470.49072455 -70.44600296 470.50888824 C-78.91541679 470.5243024 -87.38475855 470.52940195 -95.85418375 470.52115014 C-100.1735039 470.51724821 -104.49267898 470.51815086 -108.8119812 470.53220749 C-112.77111337 470.54497386 -116.72999184 470.54372503 -120.68912379 470.53161678 C-122.11648471 470.5296645 -123.54386377 470.53271643 -124.97119923 470.54146114 C-141.6837356 470.63731652 -156.19153613 466.42287466 -168.50244141 454.64550781 C-177.34955242 444.89375286 -182.93288064 432.92147465 -182.87419128 419.74427795 C-182.87489587 418.99457542 -182.87560045 418.24487289 -182.87632638 417.4724521 C-182.87763546 414.95858113 -182.87195995 412.44477278 -182.86645508 409.9309082 C-182.86621293 408.128774 -182.8664902 406.32663967 -182.86724854 404.52450562 C-182.86835514 400.64110452 -182.86692085 396.75771525 -182.86388206 392.87431526 C-182.86024839 386.7248959 -182.86939204 380.57553805 -182.88166809 374.4261322 C-182.88470099 372.86840555 -182.88470099 372.86840555 -182.88779515 371.27920967 C-182.89196396 369.15537319 -182.89616672 367.03153677 -182.90040267 364.90770042 C-182.92852432 350.59264639 -182.94870878 336.27772515 -182.93139648 321.96264648 C-182.91981338 312.30588873 -182.92950646 302.649407 -182.96345407 292.99269861 C-182.98056118 287.8865031 -182.98697042 282.78080549 -182.96733665 277.67460823 C-182.94900673 272.86363903 -182.95887705 268.05352438 -182.98959351 263.24262619 C-182.99592016 261.48556472 -182.99220143 259.72843099 -182.97719765 257.9714222 C-182.8890615 246.81394534 -184.35457569 239.16789158 -189.75634766 229.16113281 C-194.85843693 216.55232648 -194.34486764 202.98751444 -194.28759766 189.63769531 C-194.29029899 187.39765251 -194.29418671 185.15761086 -194.29919434 182.91757202 C-194.3050519 178.25303844 -194.29664311 173.58881376 -194.27783203 168.92431641 C-194.25496512 162.96626223 -194.2682387 157.00892595 -194.29212189 151.0508976 C-194.30661346 146.4370284 -194.30195978 141.82332802 -194.29161072 137.20945358 C-194.28895686 135.01275928 -194.29216556 132.81604927 -194.30152893 130.61937332 C-194.31175895 127.54775874 -194.29610657 124.47729145 -194.27392578 121.40576172 C-194.28202271 120.51307587 -194.29011963 119.62039001 -194.29846191 118.70065308 C-194.17106993 109.11326912 -190.61359859 99.98907926 -183.75634766 93.16113281 C-174.58753637 86.23837261 -165.85303607 84.85431992 -154.65869141 84.93408203 C-153.57487686 84.93378998 -152.49106232 84.93349792 -151.37440491 84.93319702 C-147.81413596 84.93458346 -144.25407977 84.95011249 -140.69384766 84.96582031 C-138.21663528 84.96955288 -135.73942142 84.9723987 -133.26220703 84.97439575 C-126.7586455 84.98201302 -120.25517403 85.00164519 -113.75164795 85.02380371 C-107.10869398 85.04430321 -100.46573117 85.05340624 -93.82275391 85.06347656 C-80.80058018 85.08489283 -67.77846872 85.11861851 -54.75634766 85.16113281 C-54.77729492 83.95166992 -54.79824219 82.74220703 -54.81982422 81.49609375 C-54.89289606 76.95617784 -54.93838883 72.41631257 -54.97607422 67.87597656 C-54.99603805 65.92080915 -55.02321901 63.96570027 -55.05810547 62.01074219 C-55.38530256 43.18728628 -52.34802661 28.58777444 -39.15478516 14.33300781 C-32.25461359 8.08464398 -23.84075938 3.3080348 -14.75634766 1.16113281 C-14.09132233 0.98970764 -13.426297 0.81828247 -12.74111938 0.6416626 C-8.49005913 -0.04273181 -4.29938728 0.00523246 0 0 Z M-26.51025391 34.30175781 C-37.3850004 49.70983237 -32.75634766 65.2428758 -32.75634766 85.16113281 C16.08365234 85.16113281 64.92365234 85.16113281 115.24365234 85.16113281 C117.64580432 56.29486512 117.64580432 56.29486512 107.33349609 32.23925781 C99.29973196 24.25054282 89.94035853 21.85874575 78.99462891 21.87060547 C78.09444031 21.86388824 77.19425171 21.85717102 76.26678467 21.85025024 C73.30589193 21.83133241 70.34522667 21.82734901 67.38427734 21.82519531 C65.31312977 21.81876248 63.2419831 21.81203376 61.1708374 21.80502319 C56.83343399 21.79306552 52.49611013 21.78934076 48.15869141 21.79052734 C42.62313099 21.7907303 37.08808527 21.76344466 31.55264664 21.72898293 C27.27502132 21.70665396 22.99751862 21.70269166 18.719841 21.7037468 C16.68025695 21.70139923 14.64066908 21.69262377 12.60114288 21.67708206 C-2.18169585 21.57498911 -16.37491893 21.93168306 -26.51025391 34.30175781 Z M-168.75634766 110.16113281 C-172.21874278 114.91630722 -172.19126883 119.48777133 -172.16040039 125.14135742 C-172.16726364 126.02522125 -172.17412689 126.90908508 -172.18119812 127.81973267 C-172.19945744 130.7344788 -172.1956264 133.6486856 -172.18994141 136.56347656 C-172.19450688 138.60405144 -172.19981354 140.64462479 -172.20582581 142.68519592 C-172.21475771 146.9647546 -172.21233665 151.24412673 -172.20239258 155.52368164 C-172.19096189 160.97035182 -172.21102315 166.41636795 -172.24030972 171.86295223 C-172.25879596 176.08156847 -172.25835368 180.30003202 -172.2526722 184.51867867 C-172.25252018 186.52424594 -172.25846418 188.52982438 -172.27096367 190.53535271 C-172.37819525 210.57835405 -169.61060856 226.63327817 -155.35400391 241.77050781 C-142.57428351 253.5316941 -127.36232621 256.79097963 -110.44946289 256.66906738 C-109.07776704 256.67369117 -107.70607617 256.68005388 -106.33439541 256.68797636 C-102.61178375 256.70449055 -98.88958852 256.69650637 -95.16697645 256.68403149 C-91.13416867 256.67490885 -87.10142806 256.68898614 -83.06863403 256.69995117 C-75.18682698 256.71766468 -67.30517297 256.71392856 -59.42336011 256.70230061 C-53.01317424 256.69323818 -46.60303102 256.69205439 -40.19284058 256.69639587 C-38.82025547 256.69731527 -38.82025547 256.69731527 -37.41994137 256.69825324 C-35.56056633 256.69953225 -33.70119131 256.7008291 -31.84181631 256.70214361 C-14.43848323 256.71352841 2.96476534 256.70046875 20.36808455 256.67894214 C35.27554267 256.66107308 50.18287616 256.66417778 65.09033203 256.68261719 C82.4347218 256.7040611 99.77903765 256.71242997 117.12343884 256.70016813 C118.9756743 256.69889404 120.82790978 256.69763656 122.68014526 256.69639587 C123.59129438 256.69577877 124.50244349 256.69516167 125.44120318 256.69452587 C131.83786497 256.69108352 138.23447956 256.69687717 144.63113403 256.70631409 C152.43488247 256.71757467 160.23847013 256.71440919 168.04220033 256.69319111 C172.01782587 256.68273499 175.99318412 256.67846497 179.96880722 256.69178772 C183.6182133 256.70383162 187.26710791 256.69695529 190.9164685 256.67587751 C192.84027657 256.66939264 194.76412103 256.68223941 196.68789005 256.69610643 C213.53591047 256.54680634 227.51640212 251.3932085 239.85302734 239.75488281 C253.92617128 224.48598154 254.86420068 206.37346215 254.73974609 186.68457031 C254.73990146 184.65914864 254.74139672 182.63372668 254.74415588 180.60830688 C254.74552939 176.39775182 254.7331483 172.1875418 254.71020508 167.97705078 C254.68163981 162.58814608 254.68462131 157.19980547 254.69729519 151.81085777 C254.70425081 147.64323111 254.69646742 143.47573458 254.68403816 139.30812454 C254.67953541 137.32025273 254.67917655 135.3323669 254.68310356 133.34449387 C254.68601929 130.5739341 254.66949795 127.80415265 254.64770508 125.03369141 C254.65220673 124.22013184 254.65670837 123.40657227 254.66134644 122.56835938 C254.59856539 117.75595433 254.16358555 114.18157755 251.24365234 110.16113281 C246.31838951 107.61204098 242.67710728 106.78583883 237.06121826 106.78360939 C236.02402909 106.77706891 236.02402909 106.77706891 234.96588659 106.77039629 C232.65560403 106.75947315 230.34592244 106.76984789 228.03564453 106.78018188 C226.35991994 106.77672415 224.68419763 106.77195881 223.00848007 106.76600015 C218.40870886 106.75347638 213.80912438 106.75966682 209.20935249 106.76895881 C204.24677388 106.77574329 199.2842275 106.76527104 194.32165527 106.75701904 C184.60194461 106.74367312 174.88230342 106.74656329 165.16259003 106.75525697 C157.26378306 106.76202972 149.36499556 106.762952 141.46618652 106.75968552 C139.78044576 106.75899597 139.78044576 106.75899597 138.06064963 106.75829249 C135.77767848 106.75733332 133.49470734 106.75636068 131.2117362 106.75537471 C109.79993613 106.7468183 88.38817458 106.7566589 66.97638083 106.77277581 C48.60060829 106.78617922 30.2248926 106.78385119 11.84912109 106.77001953 C-9.48560904 106.75396816 -30.82030541 106.7476423 -52.15504074 106.75685632 C-54.42965443 106.75781198 -56.70426813 106.75875509 -58.97888184 106.75968552 C-60.65765014 106.76037976 -60.65765014 106.76037976 -62.37033296 106.76108802 C-70.26044668 106.76367924 -78.150539 106.75930407 -86.04064941 106.75224686 C-95.65491546 106.7438366 -105.26910801 106.74610205 -114.88336563 106.76208909 C-119.78951818 106.76997815 -124.69554816 106.77305253 -129.60169983 106.76314163 C-134.09223231 106.75420746 -138.58252851 106.75910655 -143.07303953 106.77507429 C-144.69810995 106.7784275 -146.3232003 106.77671589 -147.94825792 106.76944692 C-150.15709361 106.76032402 -152.36512005 106.76968081 -154.57391357 106.78360939 C-156.4142322 106.78433998 -156.4142322 106.78433998 -158.29172897 106.78508532 C-162.43633318 107.23493801 -165.05963353 108.24837222 -168.75634766 110.16113281 Z M-160.75634766 266.16113281 C-160.82649787 286.3455466 -160.87936528 306.52993556 -160.91178417 326.71444607 C-160.92723841 336.08693459 -160.94830029 345.45934727 -160.98266602 354.83178711 C-161.01261261 363.00292372 -161.03193315 371.17400539 -161.03861314 379.34519535 C-161.0425165 383.66986556 -161.05165974 387.99437861 -161.07353783 392.31899834 C-161.09398616 396.3942366 -161.10016468 400.4692538 -161.0956707 404.5445385 C-161.09649218 406.035611 -161.10240801 407.52669132 -161.11396408 409.01771927 C-161.19741074 420.34552727 -160.24022478 429.14138606 -152.84619141 438.08300781 C-143.2249109 447.65033722 -132.55919939 448.46012833 -119.70123291 448.42855835 C-118.2593486 448.43229731 -116.81746631 448.43689982 -115.37558722 448.44228899 C-111.42206524 448.45450405 -107.46862797 448.45426029 -103.51509142 448.45190024 C-99.24773897 448.4514917 -94.98041355 448.46253485 -90.71307373 448.47201538 C-82.35563518 448.48861826 -73.99822484 448.49412461 -65.64077118 448.49524014 C-58.84611948 448.49619097 -52.05147707 448.50030302 -45.25682831 448.50664139 C-25.98576798 448.52425202 -6.71472991 448.53348056 12.55633852 448.53198044 C14.11423953 448.53186057 14.11423953 448.53186057 15.70361328 448.53173828 C16.74348453 448.53165652 17.78335577 448.53157476 18.85473827 448.53149052 C35.70513492 448.53067772 52.55544216 448.5498144 69.40581295 448.57801501 C86.71449399 448.60675369 104.02313144 448.62055476 121.33183694 448.61882746 C131.04659822 448.61816389 140.76126578 448.62364177 150.47600555 448.64518356 C158.74776414 448.66340831 167.01938651 448.66773208 175.2911565 448.65416472 C179.50926829 448.64764154 183.72711886 448.64749423 187.94520569 448.66487122 C191.81181187 448.680636 195.67795043 448.67770397 199.54454544 448.66030295 C200.9381991 448.65724051 202.33188795 448.66083686 203.72550008 448.6720231 C214.84891138 448.75534634 224.62448883 447.11005736 233.45849609 439.92675781 C239.41227349 434.03812022 242.86163955 427.28004652 243.489748 418.8634882 C243.48698262 417.14757056 243.48698262 417.14757056 243.48416138 415.39698792 C243.48587023 414.75397277 243.48757908 414.11095763 243.48933971 413.44845718 C243.49260909 411.31423547 243.48167368 409.18033486 243.47070312 407.04614258 C243.47013846 405.50818387 243.47045666 403.97022463 243.47158813 402.43226624 C243.47216048 398.2716088 243.46042536 394.11106738 243.44644022 389.95043683 C243.43391311 385.59692302 243.4327608 381.24340637 243.4303894 376.88987732 C243.42418045 368.65233088 243.40777755 360.41483771 243.38769042 352.1773147 C243.36531321 342.79644354 243.35433341 333.4155698 243.34429955 324.03467858 C243.32341081 304.74346649 243.28824621 285.45230394 243.24365234 266.16113281 C239.88477124 267.48545781 236.6668333 268.9361268 233.43115234 270.53613281 C217.9645692 277.42321919 203.15757835 277.76438759 186.49365234 277.77050781 C184.13996255 277.7855178 181.78628318 277.80225077 179.43261719 277.82061768 C173.29088815 277.86398675 167.14930112 277.88422234 161.00744629 277.89935303 C154.71890979 277.91903466 148.43052422 277.9609917 142.14208984 278.00097656 C129.84265759 278.0759484 117.54325964 278.12643906 105.24365234 278.16113281 C105.22963379 279.81097168 105.22963379 279.81097168 105.21533203 281.49414062 C105.17542298 285.57967448 105.1096623 289.664456 105.03613281 293.74951172 C105.00792837 295.51666592 104.98671116 297.28394615 104.97265625 299.05126953 C104.95121877 301.59375503 104.90456731 304.13472619 104.85302734 306.67675781 C104.85179871 307.4654425 104.85057007 308.2541272 104.8493042 309.06671143 C104.75460288 312.62289578 104.55624234 314.74429117 102.39306641 317.62890625 C99.1462251 319.94344238 96.54029363 320.28745765 92.6645813 320.30157471 C91.72529785 320.30728485 90.7860144 320.312995 89.81826782 320.31887817 C88.78962616 320.31999603 87.7609845 320.32111389 86.70117188 320.32226562 C85.0739621 320.32971298 85.0739621 320.32971298 83.41387939 320.33731079 C79.81806814 320.35193991 76.22230099 320.35873534 72.62646484 320.36425781 C70.13166299 320.3700082 67.63686115 320.37576595 65.14205933 320.38153076 C60.57737808 320.39069855 56.01270951 320.3969983 51.4480201 320.40002751 C45.40114994 320.40406262 39.35443495 320.41634903 33.30761719 320.44238281 C26.82025519 320.46988476 20.33302645 320.48277369 13.84560776 320.48470306 C11.37124396 320.48773336 8.8968811 320.4957745 6.4225502 320.50888824 C2.96318321 320.52591523 -0.49568639 320.52407653 -3.95507812 320.51757812 C-4.97967133 320.52679291 -6.00426453 320.53600769 -7.05990601 320.54550171 C-13.45330887 320.50782051 -17.1065828 319.81089767 -21.75634766 315.16113281 C-22.00204037 312.3689649 -22.12997903 309.66872677 -22.17041016 306.87207031 C-22.19945938 305.64443466 -22.19945938 305.64443466 -22.22909546 304.39199829 C-22.28895848 301.77348305 -22.33530298 299.154924 -22.38134766 296.53613281 C-22.4195213 294.76267596 -22.45857266 292.98923776 -22.49853516 291.21582031 C-22.59466537 286.86440906 -22.67867116 282.51291102 -22.75634766 278.16113281 C-24.69501709 278.15566437 -24.69501709 278.15566437 -26.67285156 278.15008545 C-38.91184828 278.11298554 -51.15059687 278.05505025 -63.3894043 277.97723007 C-69.68002292 277.93788702 -75.97050432 277.90563415 -82.26123047 277.89013672 C-88.34334224 277.87488315 -94.42507638 277.84028441 -100.50701904 277.79282379 C-102.81594543 277.77809927 -105.12492575 277.77009699 -107.43389893 277.76924896 C-123.34064413 277.75754195 -138.35688921 277.2704817 -152.63134766 269.41113281 C-156.49254464 267.04040399 -156.49254464 267.04040399 -160.75634766 266.16113281 Z M-0.75634766 278.16113281 C-0.75634766 285.09113281 -0.75634766 292.02113281 -0.75634766 299.16113281 C26.96365234 299.16113281 54.68365234 299.16113281 83.24365234 299.16113281 C83.24365234 292.23113281 83.24365234 285.30113281 83.24365234 278.16113281 C55.52365234 278.16113281 27.80365234 278.16113281 -0.75634766 278.16113281 Z " fill="#ffffff" transform="translate(214.75634765625,20.8388671875)"/>
</svg>
