<?xml version="1.0" encoding="UTF-8"?>
<svg version="1.1" xmlns="http://www.w3.org/2000/svg" width="512" height="512">
<path d="M0 0 C20.65195135 7.45878357 41.31278141 13.91426379 62.79463196 18.54570007 C71.400952 20.82693983 78.63725191 26.19187626 83.1953125 33.84375 C87.41063662 42.03352257 89.28541711 49.84650982 87.015625 59.03125 C86.30232561 61.15768968 85.54672566 63.24115242 84.6875 65.3125 C99.15667031 58.47133639 112.88107984 50.38753253 126.6875 42.3125 C128.74191893 41.11542438 130.796598 39.91879507 132.8515625 38.72265625 C138.80022874 35.25833604 144.74426704 31.78613081 150.6875 28.3125 C152.80202992 27.07673151 154.9166139 25.84105554 157.03125 24.60546875 C158.07458496 23.99582275 159.11791992 23.38617676 160.19287109 22.75805664 C163.23335473 20.98368769 166.27667023 19.21425621 169.3203125 17.4453125 C172.47611069 15.60983085 175.61963676 13.75862504 178.7421875 11.8671875 C194.83667298 2.20385931 212.59749282 -4.26103609 231.59375 -1.22265625 C240.13647623 1.00530784 246.62265235 6.13729916 251.6875 13.3125 C254.26359146 18.14267148 256.22927349 22.81378188 256.6875 28.3125 C256.75066406 28.94285156 256.81382812 29.57320313 256.87890625 30.22265625 C257.38768579 39.2658023 254.62058979 49.47685255 248.7109375 56.453125 C244.6027663 60.22820124 239.84654421 63.01472853 235.08203125 65.87060547 C232.34378827 67.51946997 229.62465222 69.19753393 226.90625 70.87890625 C222.47874186 73.61591128 218.04673836 76.3454141 213.609375 79.06640625 C206.96441978 83.14141134 200.32534953 87.22592935 193.6875 91.3125 C191.5208613 92.64587878 189.35419458 93.97921203 187.1875 95.3125 C186.115 95.9725 185.0425 96.6325 183.9375 97.3125 C166.0625 108.3125 166.0625 108.3125 148.1875 119.3125 C147.1145166 119.97282227 146.0415332 120.63314453 144.93603516 121.31347656 C142.77434075 122.64370006 140.61255722 123.97377873 138.45068359 125.30371094 C132.95719292 128.68342894 127.46538424 132.06582891 121.9765625 135.453125 C116.55989976 138.79542204 111.13677698 142.12703476 105.71044922 145.45361328 C102.82309785 147.22911751 99.94433474 149.01787134 97.06640625 150.80859375 C85.37004688 158.03942397 74.6284386 163.95149281 60.8125 165.75 C60.12978027 165.84361816 59.44706055 165.93723633 58.74365234 166.03369141 C45.32207379 167.38423193 31.81047108 163.29637881 18.99609375 159.8046875 C17.31842235 159.35506172 15.64052462 158.9062797 13.9624176 158.45828247 C9.5676229 157.28266827 5.17590102 156.09596578 0.78479004 154.90667725 C-3.58376399 153.72546948 -7.95507416 152.5545647 -12.32617188 151.3828125 C-14.05139986 150.91976676 -15.77660949 150.45665259 -17.50180054 149.99346924 C-20.05929077 149.30683582 -22.61683858 148.62042212 -25.17461014 147.93483734 C-33.18006586 145.78873928 -41.18380568 143.6402835 -49.16180134 141.39388084 C-51.96289671 140.60629344 -54.76694262 139.82956009 -57.57139397 139.05401993 C-59.4722934 138.52318555 -61.3685142 137.97568544 -63.26454163 137.42770386 C-64.39274826 137.11656647 -65.5209549 136.80542908 -66.68334961 136.48486328 C-67.65662704 136.20845001 -68.62990448 135.93203674 -69.63267517 135.64724731 C-74.08228781 135.09142894 -77.29448239 137.18920842 -81 139.4375 C-84.3125 141.3125 -84.3125 141.3125 -86.3125 141.3125 C-85.74660156 142.28832031 -85.18070313 143.26414062 -84.59765625 144.26953125 C-83.85662818 145.55460525 -83.11575061 146.83976604 -82.375 148.125 C-82.00181641 148.76759766 -81.62863281 149.41019531 -81.24414062 150.07226562 C-77.24880818 157.01910493 -76.73454142 162.38921325 -77.3125 170.3125 C-80.42055937 179.30951397 -88.55240305 183.65962911 -96.36914062 188.18164062 C-97.70784652 188.96064637 -99.0395482 189.7517727 -100.36523438 190.55273438 C-109.53872446 196.07373808 -117.23641886 200.36602161 -128.3125 198.3125 C-135.8778704 195.7456779 -139.94343131 189.78030539 -143.75 183.0625 C-144.38180176 181.96917358 -144.38180176 181.96917358 -145.02636719 180.85375977 C-149.37621256 173.28993137 -153.60796331 165.65799041 -157.8527832 158.03491211 C-161.95842659 150.67751504 -166.16609416 143.38721726 -170.4375 136.125 C-175.38526506 127.70736484 -180.13690445 119.20752232 -184.76733398 110.61181641 C-188.53394525 103.65374448 -192.4856888 96.81770938 -196.5 90 C-200.66425995 82.9172817 -204.76525389 75.81653119 -208.625 68.5625 C-208.99197998 67.87760498 -209.35895996 67.19270996 -209.73706055 66.48706055 C-212.90066494 60.45530664 -214.55062275 55.10112182 -212.78125 48.2578125 C-210.30634951 41.12902304 -206.61553082 37.13998825 -200.0078125 33.39453125 C-199.40621307 33.05121262 -198.80461365 32.70789398 -198.18478394 32.35417175 C-196.91843222 31.63430921 -195.64925486 30.91939701 -194.37744141 30.20922852 C-192.44386973 29.12856003 -190.5203382 28.03154442 -188.59765625 26.93164062 C-179.92711782 22.02199261 -172.52412866 17.84271433 -162.3046875 19.671875 C-154.7284607 21.87046631 -150.14052598 28.17058035 -146.3125 34.75 C-145.3125 37.3125 -145.3125 37.3125 -145.3125 39.3125 C-135.40117475 33.88129399 -125.56723215 28.3331108 -115.8125 22.625 C-114.8129126 22.04081299 -113.8133252 21.45662598 -112.78344727 20.85473633 C-108.50182621 18.35134873 -104.22118302 15.84635292 -99.94482422 13.33398438 C-63.02095553 -8.33814773 -40.88236954 -14.83181179 0 0 Z M-48.1875 7.4375 C-49.25742188 7.66695313 -50.32734375 7.89640625 -51.4296875 8.1328125 C-61.12507118 10.81993252 -69.8685872 15.53077879 -78.4375 20.6875 C-80.53470018 21.93045734 -82.63237366 23.17261636 -84.73046875 24.4140625 C-86.34574463 25.3736084 -86.34574463 25.3736084 -87.99365234 26.35253906 C-93.55250302 29.63534421 -99.15298838 32.84535559 -104.75 36.0625 C-106.91427119 37.31213864 -109.07833883 38.56212989 -111.2421875 39.8125 C-115.05256832 42.01314775 -118.8699339 44.20054407 -122.6953125 46.375 C-124.25535286 47.27058163 -125.8152595 48.16639625 -127.375 49.0625 C-128.0774585 49.45663086 -128.77991699 49.85076172 -129.50366211 50.25683594 C-133.39826719 52.40558998 -133.39826719 52.40558998 -135.3125 56.3125 C-134.26941106 58.87983911 -134.26941106 58.87983911 -132.62109375 61.66796875 C-132.01297852 62.75327881 -131.40486328 63.83858887 -130.77832031 64.95678711 C-130.10250322 66.13802385 -129.42638887 67.31909057 -128.75 68.5 C-128.06145588 69.71907683 -127.37363887 70.93856461 -126.68652344 72.15844727 C-121.66094095 81.05453001 -116.51319634 89.88015825 -111.33520508 98.68823242 C-105.79948936 108.12347998 -100.51947413 117.69267178 -95.3125 127.3125 C-93.58259975 126.37635433 -91.85361304 125.43852042 -90.125 124.5 C-89.16207031 123.97792969 -88.19914062 123.45585937 -87.20703125 122.91796875 C-84.33930678 121.37489344 -84.33930678 121.37489344 -81.82421875 119.67578125 C-76.75242002 116.92296981 -72.53700301 117.19431659 -67.08740234 118.66088867 C-65.86697235 118.98300827 -64.64654236 119.30512787 -63.38912964 119.63700867 C-62.05882789 120.00123603 -60.7285993 120.36573065 -59.3984375 120.73046875 C-58.00166836 121.10408137 -56.60461767 121.47664277 -55.20730591 121.84822083 C-51.4695039 122.84540818 -47.73587497 123.85745644 -44.00283813 124.87231445 C-40.14039795 125.91941761 -36.27407811 126.95199393 -32.40820312 127.98632812 C-18.74111598 131.64842192 -5.088815 135.36429934 8.5546875 139.11328125 C9.57325836 139.39278122 10.59182922 139.67228119 11.64126587 139.96025085 C16.24249189 141.22380181 20.84148215 142.4943699 25.43603516 143.78198242 C43.67698852 148.86115936 59.78027657 151.9660771 77.47216797 142.8828125 C80.23023153 141.27088539 82.93197081 139.59329394 85.625 137.875 C86.61226074 137.25955322 87.59952148 136.64410645 88.61669922 136.01000977 C90.65467681 134.73859151 92.68952432 133.46214207 94.72119141 132.18066406 C98.37399089 129.88015199 102.04698613 127.61345114 105.72167969 125.34814453 C109.19084901 123.20819143 112.6536304 121.05800938 116.11669922 118.90820312 C131.5072595 109.35523997 146.9267233 99.8495971 162.35693359 90.36083984 C168.87700953 86.35091189 175.39563534 82.33862688 181.91430664 78.32641602 C188.02483113 74.56563198 194.13647225 70.80667724 200.24978638 67.0504303 C204.09082342 64.68988269 207.92866989 62.32420643 211.765625 59.95703125 C215.4118557 57.70821087 219.06635381 55.47479761 222.734375 53.26171875 C224.17708998 52.38282342 225.61979888 51.50391808 227.0625 50.625 C227.69236816 50.25133301 228.32223633 49.87766602 228.97119141 49.49267578 C233.63018532 46.63556051 236.60383857 43.53142579 239 38.625 C240.25683696 32.569331 239.96910249 26.6816547 236.5625 21.375 C233.13756914 17.2495151 229.45374899 15.66714731 224.25 15 C202.80756069 14.00267724 181.74826914 30.02277505 164.09423828 40.32910156 C160.79696674 42.24876861 157.49225241 44.1547252 154.18359375 46.0546875 C145.27179466 51.17272223 136.3646432 56.29419127 127.54296875 61.56640625 C126.9469838 61.92206161 126.35099884 62.27771698 125.73695374 62.64414978 C122.88562898 64.34641693 120.03788098 66.05394464 117.19555664 67.77124023 C87.88937662 85.31586425 65.69079044 86.20207527 33.00820923 78.08312988 C26.88764338 76.54426125 20.78480583 74.94079256 14.6875 73.3125 C13.4603125 72.98636719 12.233125 72.66023438 10.96875 72.32421875 C7.61901051 71.42379099 4.27704093 70.4999694 0.9375 69.5625 C-0.54314941 69.1588623 -0.54314941 69.1588623 -2.05371094 68.74707031 C-10.60036817 66.2734383 -10.60036817 66.2734383 -13.3125 62.3125 C-13.77587203 57.91046571 -13.79288907 56.0330836 -11.3125 52.3125 C-4.44651923 50.60439932 0.90268314 52.05594456 7.57421875 54.0234375 C9.10427299 54.45482529 9.10427299 54.45482529 10.66523743 54.89492798 C13.90602095 55.81172848 17.14045328 56.7489587 20.375 57.6875 C23.62143169 58.61429574 26.8690248 59.53691742 30.11689758 60.45864868 C32.13249784 61.03232789 34.14702621 61.60979011 36.1603241 62.1914978 C37.53248833 62.58663071 37.53248833 62.58663071 38.93237305 62.98974609 C39.7320903 63.22148529 40.53180756 63.45322449 41.35575867 63.69198608 C48.83089613 65.68124053 56.91808882 66.92796193 64.1875 63.8125 C67.819221 60.180779 70.44465683 56.47538428 70.84765625 51.2265625 C70.46775357 46.38975271 68.83702404 43.05787994 65.6875 39.3125 C60.43135647 35.00666722 54.99254536 33.96031544 48.4375 32.5625 C31.42825826 28.67806214 14.93487296 23.56060946 -1.49609375 17.72265625 C-2.38611588 17.4072287 -3.276138 17.09180115 -4.19313049 16.76681519 C-8.64591188 15.18648795 -13.09271096 13.59189112 -17.53149414 11.97265625 C-19.18755905 11.37861704 -20.84372344 10.78485508 -22.5 10.19140625 C-23.24080307 9.91571304 -23.98160614 9.64001984 -24.74485779 9.35597229 C-32.48777402 6.60620594 -40.10907802 5.59709211 -48.1875 7.4375 Z M-174.33984375 38.6640625 C-175.29697266 39.18613281 -176.25410156 39.70820313 -177.24023438 40.24609375 C-178.23345703 40.80425781 -179.22667969 41.36242187 -180.25 41.9375 C-181.23935547 42.47246094 -182.22871094 43.00742187 -183.24804688 43.55859375 C-188.28648464 46.34379607 -192.54406343 48.93362554 -196.3125 53.3125 C-195.03806087 56.63292268 -193.61775446 59.75409508 -191.9140625 62.875 C-191.44105713 63.74310303 -190.96805176 64.61120605 -190.48071289 65.50561523 C-189.97145264 66.43188721 -189.46219238 67.35815918 -188.9375 68.3125 C-188.40439209 69.28582275 -187.87128418 70.25914551 -187.32202148 71.26196289 C-182.76491249 79.55205847 -178.08799886 87.77049699 -173.375 95.97265625 C-170.18252056 101.5297453 -167.02561181 107.10659142 -163.875 112.6875 C-163.33496338 113.64390381 -162.79492676 114.60030762 -162.23852539 115.58569336 C-161.14341627 117.52547525 -160.04844586 119.46533545 -158.95361328 121.40527344 C-155.70627291 127.15792579 -152.45483662 132.90826487 -149.203125 138.65844727 C-146.40351428 143.60987743 -143.60730582 148.56318503 -140.81640625 153.51953125 C-140.24019531 154.54175781 -139.66398437 155.56398438 -139.0703125 156.6171875 C-137.97935464 158.55275789 -136.88942733 160.48890968 -135.80078125 162.42578125 C-130.81474087 172.43000164 -130.81474087 172.43000164 -124.3125 181.3125 C-117.19557597 181.19550947 -111.91595854 177.63394516 -105.9375 174.0625 C-104.42349609 173.20205078 -104.42349609 173.20205078 -102.87890625 172.32421875 C-101.92113281 171.75832031 -100.96335937 171.19242188 -99.9765625 170.609375 C-98.66872803 169.84125488 -98.66872803 169.84125488 -97.33447266 169.05761719 C-95.15326008 167.44672185 -95.15326008 167.44672185 -94.36425781 164.92822266 C-94.29868378 161.6142597 -95.15732408 160.02204418 -96.8203125 157.1640625 C-97.67181885 155.67459106 -97.67181885 155.67459106 -98.54052734 154.1550293 C-99.16652832 153.09324463 -99.7925293 152.03145996 -100.4375 150.9375 C-101.397771 149.26844604 -101.397771 149.26844604 -102.37744141 147.56567383 C-103.70535397 145.25777553 -105.0374697 142.95298648 -106.37695312 140.65185547 C-108.66349474 136.70693667 -110.90298312 132.73710136 -113.13598633 128.76171875 C-118.79254112 118.69296221 -124.53348999 108.67226318 -130.27331543 98.65084839 C-134.45721044 91.34401563 -138.60815854 84.02011536 -142.70776367 76.66552734 C-144.98061923 72.58818167 -147.26358874 68.5165841 -149.55078125 64.44726562 C-150.77432846 62.27011123 -151.99551461 60.09162892 -153.21484375 57.91210938 C-155.10880151 54.53766351 -157.02071894 51.17402277 -158.9375 47.8125 C-159.51773926 46.77254883 -160.09797852 45.73259766 -160.69580078 44.66113281 C-161.51540283 43.23559082 -161.51540283 43.23559082 -162.3515625 41.78125 C-163.06626709 40.51958008 -163.06626709 40.51958008 -163.79541016 39.23242188 C-165.16272834 37.22046209 -165.16272834 37.22046209 -167.18334961 36.38623047 C-170.13009557 36.28418744 -171.76182474 37.25135111 -174.33984375 38.6640625 Z " fill="white" transform="translate(234.3125,305.6875)"/>
<path d="M0 0 C0.94785873 -0.0127597 1.89571747 -0.02551941 2.87229919 -0.03866577 C4.40516319 -0.04200424 4.40516319 -0.04200424 5.96899414 -0.04541016 C7.02067276 -0.05206696 8.07235138 -0.05872375 9.15589905 -0.06558228 C11.38093312 -0.07571112 13.60599758 -0.08039922 15.83105469 -0.08007812 C19.23756874 -0.08445137 22.64278752 -0.12076992 26.04907227 -0.15869141 C28.20987512 -0.16455943 30.37068414 -0.16852892 32.53149414 -0.17041016 C33.55137924 -0.18478119 34.57126434 -0.19915222 35.62205505 -0.21395874 C42.65244002 -0.16847053 42.65244002 -0.16847053 45.87060547 2.05541992 C47.2526932 4.19167067 48.33262855 6.13775055 49.23852539 8.51318359 C49.54145508 9.29886719 49.84438477 10.08455078 50.15649414 10.89404297 C50.60702148 12.11124023 50.60702148 12.11124023 51.06665039 13.35302734 C51.54038086 14.57602539 51.54038086 14.57602539 52.02368164 15.82373047 C54.31665039 21.86386676 54.31665039 21.86386676 54.31665039 25.29052734 C54.92508789 25.42587891 55.53352539 25.56123047 56.16040039 25.70068359 C63.74681687 27.56381823 70.62698833 30.45994352 77.71508789 33.66943359 C78.90360352 34.20439453 80.09211914 34.73935547 81.31665039 35.29052734 C82.11458008 35.77005859 82.91250977 36.24958984 83.73461914 36.74365234 C88.07214859 37.66234239 91.40762259 35.39658121 95.25415039 33.47802734 C105.74400906 28.37508543 105.74400906 28.37508543 110.31665039 28.29052734 C115.08741408 30.61273755 118.61402979 34.19930687 122.36743164 37.86474609 C123.02623825 38.50740921 123.68504486 39.15007233 124.36381531 39.81221008 C125.74923789 41.17006094 127.13165469 42.5309846 128.51123047 43.89477539 C129.9232804 45.28371165 131.34423852 46.66364912 132.77392578 48.03442383 C134.84585358 50.02104397 136.89000954 52.0328355 138.92993164 54.05224609 C139.57045975 54.65775803 140.21098785 55.26326996 140.8709259 55.88713074 C143.90142106 58.94796348 145.70883126 61.04028957 145.82739258 65.45678711 C145.39490311 68.70314565 144.97017912 70.97567033 143.53149414 73.86865234 C143.16604492 74.63693359 142.8005957 75.40521484 142.42407227 76.19677734 C142.03799805 76.97021484 141.65192383 77.74365234 141.25415039 78.54052734 C140.48182996 80.10304007 139.7196421 81.67061308 138.96899414 83.24365234 C138.62860107 83.92588867 138.28820801 84.608125 137.9375 85.31103516 C136.72014716 89.1923945 138.75644321 92.48276412 140.34790039 96.02880859 C140.7462207 96.93179688 141.14454102 97.83478516 141.55493164 98.76513672 C142.39172948 100.64728418 143.23283448 102.52752296 144.07836914 104.40576172 C146.28608237 109.43206029 147.89280033 113.80318275 148.31665039 119.29052734 C149.49227539 119.66177734 150.66790039 120.03302734 151.87915039 120.41552734 C156.38266214 121.92629007 160.82568131 123.57432974 165.25415039 125.29052734 C166.24813843 125.66395264 166.24813843 125.66395264 167.26220703 126.04492188 C170.7637151 127.42314144 172.17177427 128.07321317 174.31665039 131.29052734 C174.59080505 133.40194702 174.59080505 133.40194702 174.62304688 135.86621094 C174.63903427 136.79082123 174.65502167 137.71543152 174.67149353 138.6680603 C174.67953758 140.16340805 174.67953758 140.16340805 174.68774414 141.68896484 C174.69677261 142.71607574 174.70580109 143.74318665 174.71510315 144.80142212 C174.72961598 146.97516968 174.73849494 149.14896103 174.7421875 151.32275391 C174.75408085 154.64609518 174.80325527 157.96757821 174.85375977 161.29052734 C174.86322424 163.40249745 174.87045916 165.51447896 174.87524414 167.62646484 C174.89477646 168.61931488 174.91430878 169.61216492 174.93443298 170.63510132 C174.90430219 175.25017958 174.85696417 177.55249195 172.0703125 181.35888672 C169.50237581 183.16024456 167.71318693 184.12212614 164.69946289 184.86083984 C155.17961865 187.33949695 155.17961865 187.33949695 147.78491211 193.35107422 C145.44515255 198.0522669 144.15957099 203.01899359 142.92260742 208.10302734 C141.89491827 211.81297691 140.01090212 214.98963847 138.06665039 218.28271484 C136.60216351 222.20326827 138.31662235 225.41696751 139.94555664 229.03271484 C140.90733984 231.10699366 141.88279981 233.17308327 142.87719727 235.23193359 C144.94448864 239.72604528 146.25340569 243.27580138 145.31665039 248.29052734 C143.3670136 251.33197745 140.87153294 253.75170314 138.31665039 256.29052734 C137.3836106 257.24488653 136.4518877 258.20053434 135.52124023 259.15722656 C132.9158378 261.82299069 130.28542598 264.46244971 127.64453125 267.09301758 C125.98652085 268.74559916 124.33401063 270.40354934 122.68188477 272.06201172 C121.62686728 273.11636953 120.57154025 274.17041772 119.51586914 275.22412109 C119.02318039 275.71883408 118.53049164 276.21354706 118.02287292 276.72325134 C115.03362658 279.69191326 113.52077173 281.16580378 109.26196289 281.60693359 C103.44310884 281.14027302 98.98083886 278.61346168 93.81274414 276.04638672 C89.49343185 273.9282075 89.49343185 273.9282075 84.80883789 273.30224609 C81.00575357 274.81036574 77.27841275 276.44529197 73.56665039 278.16552734 C72.03217103 278.87554915 70.49570574 279.58129491 68.95727539 280.28271484 C68.19503662 280.6355957 67.43279785 280.98847656 66.64746094 281.35205078 C64.31665039 282.29052734 64.31665039 282.29052734 61.90185547 282.83056641 C58.16697963 283.66885827 56.00152416 284.25545194 53.83081055 287.53613281 C52.5533486 290.41744542 51.4979071 293.29972021 50.50415039 296.29052734 C49.80001113 298.29432112 49.08555784 300.2945277 48.35961914 302.29052734 C48.06079834 303.17740234 47.76197754 304.06427734 47.45410156 304.97802734 C46.1000754 307.73083605 44.90654374 308.677024 42.31665039 310.29052734 C40.12294006 310.6782074 40.12294006 310.6782074 37.71923828 310.69458008 C36.36246727 310.71360634 36.36246727 310.71360634 34.97828674 310.73301697 C34.00842331 310.73008133 33.03855988 310.72714569 32.03930664 310.72412109 C31.03580673 310.72936295 30.03230682 310.7346048 28.99839783 310.74000549 C26.87768478 310.74642437 24.75693612 310.74509045 22.63623047 310.73657227 C19.39429182 310.72806707 16.1541179 310.75681876 12.91235352 310.78857422 C10.85050508 310.79018647 8.78865354 310.78960824 6.72680664 310.78662109 C5.75896744 310.79785507 4.79112823 310.80908905 3.79396057 310.82066345 C-0.42560501 310.77705321 -3.0153122 310.67020213 -6.73583984 308.55566406 C-8.8097563 306.1435045 -9.54388305 304.62582664 -10.25366211 301.55224609 C-12.65628285 291.56361106 -12.65628285 291.56361106 -18.74389648 283.70703125 C-23.4356061 281.33463073 -28.4031161 280.07993866 -33.50024414 278.88037109 C-37.19186078 277.88294929 -40.32297056 275.99469488 -43.57788086 274.04052734 C-49.14910053 272.05597414 -54.7056776 275.49050444 -59.68334961 277.85302734 C-60.71202148 278.34706055 -60.71202148 278.34706055 -61.76147461 278.85107422 C-69.17950317 282.26987937 -69.17950317 282.26987937 -73.68334961 281.29052734 C-76.67750826 279.29726949 -79.13490691 276.81674064 -81.68334961 274.29052734 C-82.63985557 273.35835182 -83.59674759 272.42657233 -84.55395508 271.49511719 C-87.21757495 268.88892676 -89.85596382 266.25860836 -92.48583984 263.6184082 C-94.13842143 261.9603978 -95.7963716 260.30788758 -97.45483398 258.65576172 C-98.5091918 257.60074424 -99.56323999 256.54541721 -100.61694336 255.48974609 C-101.35901283 254.75071297 -101.35901283 254.75071297 -102.11607361 253.99674988 C-105.32809704 250.76245457 -106.58689912 249.36089258 -107.00366211 244.73583984 C-106.93086574 238.76384138 -104.03131812 234.02089349 -101.35131836 228.82568359 C-99.04657415 224.18646056 -99.04657415 224.18646056 -99.26147461 219.11865234 C-99.73069336 218.18537109 -100.19991211 217.25208984 -100.68334961 216.29052734 C-101.13452148 215.29794922 -101.58569336 214.30537109 -102.05053711 213.28271484 C-103.10744461 211.09770919 -104.17047227 208.91565829 -105.23803711 206.73583984 C-106.68334961 203.29052734 -106.68334961 203.29052734 -107.19116211 200.09521484 C-107.79957398 196.31919831 -108.3418709 194.36667185 -110.68334961 191.29052734 C-116.80792616 187.70810378 -123.65058148 185.52035358 -130.38671875 183.38037109 C-133.15712723 182.0657008 -134.07453752 180.88233656 -135.68334961 178.29052734 C-136.07102966 176.05212402 -136.07102966 176.05212402 -136.08740234 173.58544922 C-136.10008652 172.65768677 -136.11277069 171.72992432 -136.12583923 170.77404785 C-136.12290359 169.77917358 -136.11996796 168.78429932 -136.11694336 167.75927734 C-136.12218521 166.73120972 -136.12742706 165.70314209 -136.13282776 164.6439209 C-136.13924663 162.47193301 -136.13791273 160.29991036 -136.12939453 158.12792969 C-136.12088051 154.8025944 -136.14965559 151.47897436 -136.18139648 148.15380859 C-136.18300847 146.04313203 -136.18243102 143.93245241 -136.17944336 141.82177734 C-136.19067734 140.82690308 -136.20191132 139.83202881 -136.21348572 138.80700684 C-136.14429701 131.96434394 -136.14429701 131.96434394 -133.94140625 128.74414062 C-131.65064627 127.26947472 -129.65294532 126.32284032 -127.05834961 125.50146484 C-125.75124023 125.04707031 -125.75124023 125.04707031 -124.41772461 124.58349609 C-122.60175711 123.97384986 -120.77864484 123.38506887 -118.94897461 122.81787109 C-113.83026217 121.00885802 -113.83026217 121.00885802 -110.29516602 117.07763672 C-109.27599443 114.5102504 -108.46695524 111.9383158 -107.68334961 109.29052734 C-107.09070458 107.85824916 -106.47479242 106.43528991 -105.83178711 105.02490234 C-105.53788086 104.36232422 -105.24397461 103.69974609 -104.94116211 103.01708984 C-104.34550295 101.68344588 -103.74913221 100.35011953 -103.15209961 99.01708984 C-102.57435334 97.71332613 -102.00824742 96.40432629 -101.45532227 95.08984375 C-100.7684422 93.48886143 -100.00432188 91.92151983 -99.23022461 90.36083984 C-98.39317711 85.66141603 -100.42636002 82.54841332 -102.55834961 78.41552734 C-105.58060109 72.50069194 -107.87004646 67.99736462 -106.68334961 61.29052734 C-104.75132715 58.22121506 -102.25733209 55.82808555 -99.68334961 53.29052734 C-98.34171466 51.88141076 -97.00018676 50.47218991 -95.66088867 49.06085205 C-93.69943877 47.00959065 -91.70807697 44.98885299 -89.71313477 42.97021484 C-88.68789398 41.92828486 -87.66806693 40.88100175 -86.65356445 39.82861328 C-85.16518523 38.28528587 -83.66083844 36.75923912 -82.15209961 35.23583984 C-80.82855469 33.88256592 -80.82855469 33.88256592 -79.47827148 32.50195312 C-76.25308139 29.95008626 -73.70316729 29.06121899 -69.68334961 28.29052734 C-66.50756836 29.04833984 -66.50756836 29.04833984 -63.37084961 30.41552734 C-62.23518555 30.87572266 -61.09952148 31.33591797 -59.92944336 31.81005859 C-56.68334961 33.29052734 -56.68334961 33.29052734 -54.21850586 34.80224609 C-51.51045758 36.3437505 -49.81430316 37.07178949 -46.68334961 37.29052734 C-41.39547207 35.74402108 -36.58918734 32.90743682 -31.75024414 30.32958984 C-27.03092639 27.95710976 -21.05145107 25.29052734 -15.68334961 25.29052734 C-15.58795898 24.48099609 -15.49256836 23.67146484 -15.39428711 22.83740234 C-14.52160185 18.48356599 -13.00586651 14.62999987 -11.30834961 10.54052734 C-11.00413086 9.77353516 -10.69991211 9.00654297 -10.38647461 8.21630859 C-10.08483398 7.48283203 -9.78319336 6.74935547 -9.47241211 5.99365234 C-9.20122559 5.33010742 -8.93003906 4.6665625 -8.65063477 3.98291016 C-6.55437379 0.31524708 -3.84835247 0.0351783 0 0 Z M5.31665039 16.29052734 C2.80338389 23.33449747 2.80338389 23.33449747 0.38378906 30.41064453 C-1.18193066 34.5027902 -2.33357499 37.48300703 -6.18530273 39.78735352 C-8.9962862 40.81091815 -11.77760988 41.58524821 -14.68334961 42.29052734 C-16.06256031 42.75649988 -17.43604373 43.2401038 -18.80053711 43.74755859 C-20.04061523 44.19486328 -21.28069336 44.64216797 -22.55834961 45.10302734 C-29.05781173 47.47708237 -34.87229763 50.40389616 -40.81616211 53.97021484 C-44.90560403 55.85336385 -47.6467815 55.97938603 -51.93676758 54.52832031 C-54.50705269 53.5081738 -57.03267603 52.41643002 -59.55834961 51.29052734 C-60.43749023 50.90896484 -61.31663086 50.52740234 -62.22241211 50.13427734 C-64.38049176 49.19598184 -66.53368767 48.24791306 -68.68334961 47.29052734 C-71.89917826 50.3033872 -75.07539196 53.3550148 -78.24584961 56.41552734 C-79.16043945 57.27146484 -80.0750293 58.12740234 -81.01733398 59.00927734 C-81.8777832 59.84716797 -82.73823242 60.68505859 -83.62475586 61.54833984 C-84.42598877 62.31291504 -85.22722168 63.07749023 -86.05273438 63.86523438 C-87.99660638 66.23304731 -87.99660638 66.23304731 -87.52514648 69.38793945 C-86.22557263 73.86898167 -84.0787407 77.83271559 -81.96069336 81.97412109 C-80.31853769 86.23769958 -79.74178685 89.74266999 -81.36425781 94.13305664 C-82.29888794 96.10423474 -83.31447111 98.00694236 -84.37084961 99.91552734 C-88.93454395 108.58765452 -92.75910985 117.27698525 -94.99584961 126.85302734 C-95.74421609 129.38847662 -96.19905413 130.86283783 -98.18725586 132.61865234 C-100.31136078 133.73613551 -102.41088294 134.51319668 -104.68334961 135.29052734 C-106.99683027 136.18382508 -109.30928255 137.07978943 -111.62084961 137.97802734 C-112.74362305 138.39439453 -113.86639648 138.81076172 -115.02319336 139.23974609 C-117.56549477 140.04004636 -117.56549477 140.04004636 -118.68334961 141.29052734 C-118.77102073 143.36314811 -118.79030834 145.43873029 -118.78100586 147.51318359 C-118.7777832 148.77324219 -118.77456055 150.03330078 -118.77124023 151.33154297 C-118.76288364 152.67203843 -118.75441868 154.01253322 -118.74584961 155.35302734 C-118.74083621 156.69742676 -118.73627303 158.04182794 -118.73217773 159.38623047 C-118.72034449 162.68770675 -118.70385932 165.98909538 -118.68334961 169.29052734 C-118.09320068 169.51192383 -117.50305176 169.73332031 -116.89501953 169.96142578 C-114.2152556 170.97500568 -111.54317271 172.00749772 -108.87084961 173.04052734 C-107.47769531 173.56259766 -107.47769531 173.56259766 -106.05639648 174.09521484 C-105.1637207 174.44326172 -104.27104492 174.79130859 -103.35131836 175.14990234 C-102.52913818 175.46411133 -101.70695801 175.77832031 -100.85986328 176.10205078 C-96.83058836 178.30222019 -95.40653255 181.4827924 -94.14038086 185.74755859 C-93.87491455 186.60591309 -93.60944824 187.46426758 -93.3359375 188.34863281 C-93.0587085 189.25758301 -92.78147949 190.1665332 -92.49584961 191.10302734 C-89.8831565 199.39191589 -86.68510119 206.63867938 -82.18725586 214.06396484 C-80.08022534 218.58450305 -79.88485821 221.85192592 -81.44726562 226.62353516 C-82.45819795 229.19354088 -83.54969592 231.70986078 -84.68334961 234.22802734 C-85.25569336 235.5399707 -85.25569336 235.5399707 -85.83959961 236.87841797 C-86.77627052 239.02105267 -87.72429461 241.15784155 -88.68334961 243.29052734 C-85.64539895 246.50222793 -82.57435283 249.68021549 -79.49584961 252.85302734 C-78.6315332 253.76761719 -77.7672168 254.68220703 -76.87670898 255.62451172 C-75.61503906 256.91518555 -75.61503906 256.91518555 -74.32788086 258.23193359 C-73.55806885 259.0331665 -72.78825684 259.83439941 -71.99511719 260.65991211 C-69.80196557 262.56805733 -69.80196557 262.56805733 -67.10400391 262.13012695 C-63.88158731 261.01243753 -60.79576867 259.68574968 -57.68334961 258.29052734 C-47.47055342 253.71237733 -47.47055342 253.71237733 -43.44189453 255.015625 C-42.31424683 255.6041626 -42.31424683 255.6041626 -41.16381836 256.20458984 C-40.31368164 256.63376709 -39.46354492 257.06294434 -38.58764648 257.50512695 C-37.69110352 257.97055908 -36.79456055 258.43599121 -35.87084961 258.91552734 C-28.01207547 262.84833246 -20.40207078 265.93529436 -11.93334961 268.25537109 C-7.48606754 269.6718732 -4.56053568 270.70731346 -2.24194336 274.89208984 C-1.68700195 276.38869141 -1.68700195 276.38869141 -1.12084961 277.91552734 C0.86786842 283.15913683 3.02208855 288.12776321 5.31665039 293.29052734 C14.55665039 293.29052734 23.79665039 293.29052734 33.31665039 293.29052734 C35.82303219 286.84698838 35.82303219 286.84698838 38.31201172 280.39672852 C38.78803833 279.18980347 38.78803833 279.18980347 39.27368164 277.95849609 C39.59312744 277.13631592 39.91257324 276.31413574 40.24169922 275.46704102 C41.73949993 272.43436027 43.15356311 270.78746707 46.28344727 269.45019531 C47.0265918 269.22992676 47.76973633 269.0096582 48.53540039 268.78271484 C49.37611084 268.52216309 50.21682129 268.26161133 51.08300781 267.99316406 C51.98510986 267.72004395 52.88721191 267.44692383 53.81665039 267.16552734 C62.2748386 264.53226948 70.06289236 261.30444122 77.74633789 256.87207031 C82.11072884 254.56156801 84.6822549 253.99194679 89.50024414 255.37255859 C94.12938628 257.08463973 98.49728649 259.22126654 102.87133789 261.49755859 C105.23697507 262.54629557 105.23697507 262.54629557 107.21044922 261.57373047 C111.38584848 259.02986835 114.6662417 255.39525875 118.12915039 251.97802734 C118.93030273 251.218125 119.73145508 250.45822266 120.55688477 249.67529297 C121.30905273 248.9334375 122.0612207 248.19158203 122.83618164 247.42724609 C123.5281665 246.75395264 124.22015137 246.08065918 124.93310547 245.38696289 C126.58465296 243.34974585 126.58465296 243.34974585 126.12231445 240.72265625 C124.72918292 236.51708766 122.61101664 232.67412645 120.59399414 228.73974609 C118.88012039 224.11176284 118.34684095 220.03165601 119.99755859 215.3659668 C120.92461246 213.39455218 121.93871866 211.50305913 123.00415039 209.60302734 C123.74575864 208.20443046 124.48269428 206.80334655 125.21508789 205.39990234 C125.57570313 204.70960938 125.93631836 204.01931641 126.30786133 203.30810547 C129.82954407 196.26473998 132.37019399 188.68102314 134.44555664 181.09521484 C136.95875054 175.8885082 143.52221891 174.4913148 148.56665039 172.60302734 C151.45415039 171.50990234 154.34165039 170.41677734 157.31665039 169.29052734 C157.31665039 160.05052734 157.31665039 150.81052734 157.31665039 141.29052734 C151.17829515 138.22134972 145.61554433 135.92955726 139.17211914 133.82958984 C133.40224654 130.71969955 132.43882158 123.75954011 130.62915039 117.85302734 C128.43234187 110.88527096 125.70682207 104.63100266 121.85693359 98.41381836 C119.2903031 94.07226367 118.47446121 90.2322307 119.31665039 85.29052734 C120.27077153 82.4152704 121.52780436 79.74836739 122.87915039 77.04052734 C125.42760431 72.40504887 125.42760431 72.40504887 126.15844727 67.33544922 C125.02746001 64.58801614 123.40216929 63.03858781 121.28149414 60.96240234 C120.47260742 60.16318359 119.6637207 59.36396484 118.83032227 58.54052734 C117.98018555 57.71552734 117.13004883 56.89052734 116.25415039 56.04052734 C115.40014648 55.20005859 114.54614258 54.35958984 113.66625977 53.49365234 C111.55629627 51.41905137 109.43965331 49.35176902 107.31665039 47.29052734 C106.77250488 47.53287109 106.22835937 47.77521484 105.66772461 48.02490234 C103.1805842 49.12489215 100.6863451 50.20778595 98.19165039 51.29052734 C97.33571289 51.67208984 96.47977539 52.05365234 95.59790039 52.44677734 C87.12007391 56.09876413 87.12007391 56.09876413 82.31665039 55.29052734 C79.6826364 54.14789264 77.26065749 52.97279169 74.75415039 51.60302734 C66.0842375 47.0699815 57.4200629 43.17101883 47.81665039 41.10302734 C44.93083999 40.25919587 43.64988813 39.70938284 41.76586914 37.34130859 C38.33563757 30.74634326 35.94125571 23.11450119 33.31665039 16.29052734 C24.07665039 16.29052734 14.83665039 16.29052734 5.31665039 16.29052734 Z " fill="white" transform="translate(298.683349609375,7.70947265625)"/>
<path d="M0 0 C17.21794359 14.75139534 25.60376907 34.55640769 27.36328125 56.77734375 C27.89135739 76.990925 20.91914425 95.87850806 7.68359375 111.03125 C6.17913953 112.60952684 4.65889823 114.17295 3.12109375 115.71875 C2.47011719 116.40453125 1.81914062 117.0903125 1.1484375 117.796875 C-13.95230617 132.57756437 -33.83103406 137.36167355 -54.31518555 137.18994141 C-72.85044344 136.68094558 -89.0887447 130.23457319 -102.87890625 117.71875 C-103.72195313 116.96851563 -104.565 116.21828125 -105.43359375 115.4453125 C-120.32812469 101.45622417 -127.66780934 82.97731124 -129.1640625 62.890625 C-129.71123171 40.14741797 -121.68959035 20.50802183 -106.2109375 4.02734375 C-76.72878419 -25.15850651 -31.72340432 -25.13767723 0 0 Z M-94.87890625 17.71875 C-95.51699219 18.33363281 -96.15507812 18.94851562 -96.8125 19.58203125 C-106.9843114 30.16162128 -111.72504753 44.77032969 -112.25390625 59.21875 C-111.88488608 70.12891145 -108.85960221 80.0723428 -103.87890625 89.71875 C-103.21890625 89.71875 -102.55890625 89.71875 -101.87890625 89.71875 C-100.79562404 88.11333177 -99.78840108 86.45639003 -98.81640625 84.78125 C-92.8869903 75.25008139 -85.75234447 68.9749645 -75.87890625 63.71875 C-76.30042969 62.89890625 -76.72195313 62.0790625 -77.15625 61.234375 C-77.70410156 60.15671875 -78.25195312 59.0790625 -78.81640625 57.96875 C-79.36167969 56.90140625 -79.90695312 55.8340625 -80.46875 54.734375 C-84.12956053 46.90571646 -83.98186354 38.13598451 -81.31640625 29.96875 C-77.85517536 21.54034916 -72.00347562 15.73228727 -63.87890625 11.71875 C-55.00791578 8.13623462 -45.23708217 8.72370914 -36.484375 12.3359375 C-28.2277212 16.71802962 -23.07159852 22.98160554 -19.87890625 31.71875 C-17.39440867 41.9434131 -18.89894759 51.7041523 -24.06640625 60.84375 C-24.66453125 61.7925 -25.26265625 62.74125 -25.87890625 63.71875 C-25.17765625 64.13125 -24.47640625 64.54375 -23.75390625 64.96875 C-14.16725433 70.80410334 -7.56776174 76.76064764 -2.10546875 86.6171875 C-0.92805396 88.83911548 -0.92805396 88.83911548 1.12109375 90.71875 C10.6100806 74.22818062 11.88487698 58.78400587 7.12109375 40.71875 C2.66855507 25.66185591 -8.72292441 12.95531502 -22.30761719 5.40356445 C-47.49138791 -7.68034833 -75.17144254 -1.92110663 -94.87890625 17.71875 Z M-64.25390625 32.28125 C-67.08088777 36.52172228 -67.64286233 40.73526907 -66.87890625 45.71875 C-65.07142386 50.38948721 -62.47359392 53.75264177 -58.12890625 56.28125 C-53.56814333 58.21742294 -49.59899872 58.05859072 -44.87890625 56.71875 C-40.08427821 54.457133 -37.62310384 51.68636132 -35.5078125 46.93359375 C-34.00749268 41.64985873 -35.13678694 37.23153167 -37.50390625 32.40625 C-40.78423683 28.69429698 -43.92864882 26.28789415 -48.86328125 25.3359375 C-55.39497203 24.95618804 -59.81946996 27.49672664 -64.25390625 32.28125 Z M-81.69140625 88.59375 C-86.34606959 94.25278385 -88.83071488 99.4636215 -89.87890625 106.71875 C-73.65729003 117.74288379 -57.29292192 122.78520427 -37.60791016 119.31884766 C-28.41582686 117.17209033 -17.2551499 112.78311547 -11.87890625 104.71875 C-13.83234089 94.96917531 -20.79311793 86.58112119 -28.76171875 81 C-46.58442623 70.21430248 -67.50306041 73.23057298 -81.69140625 88.59375 Z " fill="white" transform="translate(368.87890625,103.28125)"/>
<path d="M0 0 C3.34265205 1.20706879 3.94704566 1.92056849 6 5 C6.46797583 9.21178243 6.46565795 11.28599114 4.125 14.875 C1.61333682 17.38666318 0.70615837 17.92153796 -2.8125 18.3125 C-6.7307645 17.92835642 -8.21293267 16.70743683 -11 14 C-12.42662219 11.14675563 -12.31033868 9.16545451 -12 6 C-8.46811118 0.70216676 -6.29846462 -0.37790788 0 0 Z " fill="white" transform="translate(65,358)"/>
</svg>
